<svg width="25" height="34" viewBox="0 0 25 34" fill="none" xmlns="http://www.w3.org/2000/svg">
<path d="M12.5031 29.3364C13.1174 28.4377 13.7318 27.538 14.3465 26.6378C16.3962 23.6363 18.4493 20.6297 20.513 17.6386C21.5561 16.1266 22.1303 14.6063 22.2411 13.0823C22.3517 11.5601 22.0023 10.0009 21.1465 8.4048L21.1463 8.40431C19.5924 5.49853 17.0006 3.80999 13.5034 3.47954L12.5031 29.3364ZM12.5031 29.3364C12.1845 28.8699 11.869 28.4067 11.555 27.9458C11.0366 27.1849 10.5226 26.4301 10.0056 25.6767C10.0056 25.6767 10.0056 25.6766 10.0055 25.6766L4.24069 17.2594L4.24022 17.2587C2.16953 14.2461 2.32036 10.0716 4.63457 7.1893L4.63488 7.18892C6.84859 4.42631 9.80805 3.1324 13.5032 3.47952L12.5031 29.3364Z" fill="#008080" stroke="#008080"/>
<path d="M12.44 16.2022L12.438 16.2021C10.3256 16.1426 8.54502 14.5049 8.60112 12.4757M12.44 16.2022L16.407 12.6029C16.4742 10.5756 14.7159 8.92653 12.5929 8.85633C10.496 8.77627 8.65649 10.4197 8.60112 12.4757M12.44 16.2022C14.5286 16.2525 16.3406 14.6517 16.407 12.603L12.44 16.2022ZM8.60112 12.4757C8.60112 12.4758 8.60112 12.4758 8.60111 12.4759L9.10093 12.4893L8.60113 12.4755C8.60112 12.4756 8.60112 12.4756 8.60112 12.4757Z" fill="white" stroke="#008080"/>
</svg>
