<svg width="25" height="25" viewBox="0 0 25 25" fill="none" xmlns="http://www.w3.org/2000/svg">
<circle cx="12.5001" cy="12.5" r="4.7619" fill="#FFD700"/>
<rect x="11.9049" width="0.628141" height="7.14286" rx="0.31407" fill="#FFD700"/>
<rect width="0.628141" height="7.14286" rx="0.31407" transform="matrix(1 0 0 -1 11.9049 25)" fill="#FFD700"/>
<rect x="18.3823" y="1.47057" width="0.628141" height="7.35294" rx="0.31407" transform="rotate(30 18.3823 1.47057)" fill="#FFD700"/>
<rect width="0.628141" height="7.35294" rx="0.31407" transform="matrix(0.866025 -0.5 -0.5 -0.866025 18.3823 23.5294)" fill="#FFD700"/>
<rect x="23.2798" y="6.25" width="0.628141" height="7.35294" rx="0.31407" transform="rotate(60 23.2798 6.25)" fill="#FFD700"/>
<rect width="0.628141" height="7.35294" rx="0.31407" transform="matrix(0.5 -0.866025 -0.866025 -0.5 23.2798 18.75)" fill="#FFD700"/>
<rect x="25" y="11.9048" width="0.628141" height="7.14286" rx="0.31407" transform="rotate(90 25 11.9048)" fill="#FFD700"/>
<rect x="6.61774" y="23.5294" width="0.628141" height="7.35294" rx="0.31407" transform="rotate(-150 6.61774 23.5294)" fill="#FFD700"/>
<rect width="0.628141" height="7.35294" rx="0.31407" transform="matrix(-0.866025 0.5 0.5 0.866025 6.61774 1.47057)" fill="#FFD700"/>
<rect x="1.72015" y="18.75" width="0.628141" height="7.35294" rx="0.31407" transform="rotate(-120 1.72015 18.75)" fill="#FFD700"/>
<rect width="0.628141" height="7.35294" rx="0.31407" transform="matrix(-0.5 0.866025 0.866025 0.5 1.72015 6.25)" fill="#FFD700"/>
<rect width="0.628141" height="7.14286" rx="0.31407" transform="matrix(4.37114e-08 1 1 -4.37114e-08 0 11.9048)" fill="#FFD700"/>
</svg>
